<?xml version="1.0" encoding="utf-8"?>
<!-- Generator: Adobe Illustrator 19.0.0, SVG Export Plug-In . SVG Version: 6.00 Build 0)  -->
<svg width="150px" height="auto" viewBox="0 0 640 480" version="1.1" xmlns:xlink="http://www.w3.org/1999/xlink" xmlns="http://www.w3.org/2000/svg">
<style type="text/css">
	.st0{display:none;}
	.st1{display:inline;}
	.st2{fill:#494949;}
	.st3{display:inline;fill:#494949;}
	.st4{fill:#FFFFFF;}
	.st5{fill:#339999;}
	.st6{display:inline;fill:#339999;}
	.st7{fill:#FFFF00;}
	.st8{display:inline;fill:#FFFF00;}
</style>
<g id="Layer_1" class="st0">
	<path id="XMLID_2_" class="st1" d="M1126.8-135.6L1126.8-135.6c0,0.4,0.3,0.8,0.7,0.8l15.2,1c0.4,0,0.7,0.3,0.7,0.7v36.5
		c0,0.4-0.3,0.7-0.7,0.7l-15.2,1c-0.4,0-0.7,0.3-0.7,0.7l0,0c0,0.4,0.3,0.7,0.7,0.7h17.4c0.4,0,0.7-0.3,0.7-0.7v-41.5
		c0-0.4-0.3-0.7-0.7-0.7h-17.4C1127.1-136.3,1126.8-136,1126.8-135.6z"/>
	<path id="XMLID_7_" class="st1" d="M1126.8-137.9L1126.8-137.9c0-0.4,0.3-0.8,0.7-0.8l15.2-1c0.4,0,0.7-0.3,0.7-0.7V-177
		c0-0.4-0.3-0.7-0.7-0.7l-15.2-1c-0.4,0-0.7-0.3-0.7-0.7l0,0c0-0.4,0.3-0.7,0.7-0.7h17.4c0.4,0,0.7,0.3,0.7,0.7v41.5
		c0,0.4-0.3,0.7-0.7,0.7h-17.4C1127.1-137.2,1126.8-137.5,1126.8-137.9z"/>
	<g id="XMLID_4_" class="st1">
		<path id="XMLID_11_" d="M1002.4-153.6c-3-1.7-6.3-2.6-9.9-2.6c-3.6,0-6.9,0.9-9.8,2.6c-2.9,1.7-5.2,4.1-7,7
			c-1.7,3-2.6,6.3-2.6,9.8c0,3.7,0.9,7.1,2.6,10c1.7,2.9,4.1,5.2,7,6.9c2.9,1.7,6.2,2.5,9.8,2.5c3.6,0,6.9-0.9,9.8-2.6
			c2.9-1.7,5.3-4,7-6.9c1.8-2.9,2.6-6.3,2.6-9.8c0-3.5-0.9-6.8-2.6-9.8C1007.7-149.5,1005.3-151.9,1002.4-153.6z M1001-131.8
			c-0.9,1.5-2.1,2.7-3.6,3.6c-1.5,0.9-3.1,1.3-4.9,1.3c-1.8,0-3.4-0.4-4.9-1.3c-1.5-0.9-2.7-2.1-3.6-3.6c-0.9-1.5-1.3-3.1-1.3-5
			c0-1.7,0.4-3.2,1.3-4.7c0.9-1.6,2.1-2.8,3.6-3.8c1.4-0.9,3-1.4,4.9-1.4c1.8,0,3.4,0.4,4.8,1.3c1.5,0.9,2.7,2.1,3.6,3.7
			c0.9,1.5,1.3,3.1,1.3,4.9C1002.3-134.9,1001.9-133.2,1001-131.8z"/>
		<path id="XMLID_3_" d="M1049.3-121.7l4.8,10.9l2.9-7l0.8-2l1.3-3.3l3.7-9.2l4.2,9.5l0.8,1.7l0.5,1.1l3.8,8.6l3.8-8.6l0.6-1.3
			l0.8-1.4l15-33.3H1082l-9.7,22.2l-9.9-22.2h-10.4l5.6,12.2l-3.7,9.3l-9.7-21.5h-6h-7.3c-1.4,0-2.7,0.2-4,0.7
			c-0.7,0.3-1.4,0.7-2.1,1.1l0-1.8h-9.7v37h10v-21c0-1.4,0.4-2.6,1.1-3.7c0.8-1.2,1.8-2.1,3.2-2.8c1.4-0.7,2.6-1.1,4.2-1.1l3.5-0.1
			v-0.1l11.6,25.2"/>
		<path id="XMLID_19_" d="M1115.2-129.5c-0.9,0.8-1.9,1.5-3.1,2c-1.2,0.5-2.4,0.7-3.7,0.7c-2,0-3.7-0.4-5.1-1.3
			c-0.6-0.4-1.2-0.9-1.7-1.4l16.9-6.9l1.8-0.8l1.8-0.9l-0.1-0.2v-10.4c-1-1.4-1.8-2.6-3.1-3.7c-3-2.5-6.5-3.8-10.7-3.8
			c-3.6,0-6.8,0.9-9.7,2.6c-2.9,1.7-5.2,4.1-6.9,7c-1.7,3-2.6,6.3-2.6,9.8c0,3.6,0.9,6.9,2.7,9.8c1.7,2.9,4.1,5.2,7,6.9
			c2.9,1.7,6.2,2.6,9.8,2.6c2.5,0,5-0.5,7.3-1.4c2.2-0.9,4.2-2.1,5.9-3.6l3.2-2.7l-6.6-7.1L1115.2-129.5z M1099.9-141.8
			c0.9-1.5,2-2.7,3.5-3.6c1.5-0.9,3.1-1.3,4.9-1.3c1.8,0,3.3,0.5,4.6,1.6c0.2,0.2,0.4,0.3,0.6,0.5l-14.7,5.9
			C1099-139.8,1099.4-140.8,1099.9-141.8z"/>
	</g>
	<path id="XMLID_41_" class="st1" d="M1128.6-255.6L1128.6-255.6c-0.2,0.4,0,0.8,0.3,1l13.8,6.5c0.3,0.2,0.5,0.6,0.4,0.9l-13.3,34
		c-0.1,0.4-0.5,0.5-0.9,0.4l-14.5-4.6c-0.4-0.1-0.7,0.1-0.9,0.4l0,0c-0.1,0.4,0,0.8,0.4,0.9l16.2,6.3c0.4,0.1,0.8,0,0.9-0.4
		l15.1-38.7c0.1-0.4,0-0.8-0.4-0.9l-16.2-6.3C1129.2-256.1,1128.8-256,1128.6-255.6z"/>
	<path id="XMLID_40_" class="st1" d="M1128.7-261.1L1128.7-261.1c-0.2-0.4,0-0.8,0.3-1l13.8-6.5c0.3-0.2,0.5-0.6,0.4-0.9l-13.4-34
		c-0.1-0.4-0.5-0.5-0.9-0.4l-14.5,4.7c-0.4,0.1-0.7-0.1-0.9-0.4l0,0c-0.1-0.4,0-0.8,0.4-0.9l16.2-6.4c0.4-0.1,0.8,0,0.9,0.4
		l15.3,38.6c0.1,0.4,0,0.8-0.4,0.9l-16.2,6.4C1129.3-260.6,1128.9-260.8,1128.7-261.1z"/>
	<g id="XMLID_32_" class="st1">
		<path id="XMLID_37_" d="M1002.4-275.6c-3-1.7-6.3-2.6-9.9-2.6c-3.6,0-6.9,0.9-9.8,2.6c-2.9,1.7-5.2,4.1-7,7
			c-1.7,3-2.6,6.3-2.6,9.8c0,3.7,0.9,7.1,2.6,10c1.7,2.9,4.1,5.2,7,6.9c2.9,1.7,6.2,2.5,9.8,2.5c3.6,0,6.9-0.9,9.8-2.6
			c2.9-1.7,5.3-4,7-6.9c1.8-2.9,2.6-6.3,2.6-9.8c0-3.5-0.9-6.8-2.6-9.8C1007.7-271.5,1005.3-273.9,1002.4-275.6z M1001-253.8
			c-0.9,1.5-2.1,2.7-3.6,3.6c-1.5,0.9-3.1,1.3-4.9,1.3c-1.8,0-3.4-0.4-4.9-1.3c-1.5-0.9-2.7-2.1-3.6-3.6c-0.9-1.5-1.3-3.1-1.3-5
			c0-1.7,0.4-3.2,1.3-4.7c0.9-1.6,2.1-2.8,3.6-3.8c1.4-0.9,3-1.4,4.9-1.4c1.8,0,3.4,0.4,4.8,1.3c1.5,0.9,2.7,2.1,3.6,3.7
			c0.9,1.5,1.3,3.1,1.3,4.9C1002.3-256.9,1001.9-255.2,1001-253.8z"/>
		<path id="XMLID_36_" d="M1049.3-243.7l4.8,10.9l2.9-7l0.8-2l1.3-3.3l3.7-9.2l4.2,9.5l0.8,1.7l0.5,1.1l3.8,8.6l3.8-8.6l0.6-1.3
			l0.8-1.4l15-33.3H1082l-9.7,22.2l-9.9-22.2h-10.4l5.6,12.2l-3.7,9.3l-9.7-21.5h-6h-7.3c-1.4,0-2.7,0.2-4,0.7
			c-0.7,0.3-1.4,0.7-2.1,1.1l0-1.8h-9.7v37h10v-21c0-1.4,0.4-2.6,1.1-3.7c0.8-1.2,1.8-2.1,3.2-2.8c1.4-0.7,2.6-1.1,4.2-1.1l3.5-0.1
			v-0.1l11.6,25.2"/>
		<path id="XMLID_33_" d="M1115.2-251.5c-0.9,0.8-1.9,1.5-3.1,2c-1.2,0.5-2.4,0.7-3.7,0.7c-2,0-3.7-0.4-5.1-1.3
			c-0.6-0.4-1.2-0.9-1.7-1.4l16.9-6.9l1.8-0.8l1.8-0.9l-0.1-0.2v-10.4c-1-1.4-1.8-2.6-3.1-3.7c-3-2.5-6.5-3.8-10.7-3.8
			c-3.6,0-6.8,0.9-9.7,2.6c-2.9,1.7-5.2,4.1-6.9,7c-1.7,3-2.6,6.3-2.6,9.8c0,3.6,0.9,6.9,2.7,9.8c1.7,2.9,4.1,5.2,7,6.9
			c2.9,1.7,6.2,2.6,9.8,2.6c2.5,0,5-0.5,7.3-1.4c2.2-0.9,4.2-2.1,5.9-3.6l3.2-2.7l-6.6-7.1L1115.2-251.5z M1099.9-263.8
			c0.9-1.5,2-2.7,3.5-3.6c1.5-0.9,3.1-1.3,4.9-1.3c1.8,0,3.3,0.5,4.6,1.6c0.2,0.2,0.4,0.3,0.6,0.5l-14.7,5.9
			C1099-261.8,1099.4-262.8,1099.9-263.8z"/>
	</g>
	<path id="XMLID_31_" class="st1" d="M670.8,287.9h0.2c1.3,0,2.4-1,2.5-2.3l3.6-52.4c0.1-1.3,1.2-2.3,2.5-2.3h126
		c1.3,0,2.4,1,2.5,2.3l3.4,52.4c0.1,1.3,1.2,2.3,2.5,2.3l0,0c1.4,0,2.5-1.1,2.5-2.5v-60c0-1.4-1.1-2.5-2.5-2.5h-143
		c-1.4,0-2.5,1.1-2.5,2.5v60C668.3,286.8,669.4,287.9,670.8,287.9z"/>
	<path id="XMLID_30_" class="st1" d="M670.8,33.8h0.2c1.3,0,2.4,1,2.5,2.3l3.6,52.4c0.1,1.3,1.2,2.3,2.5,2.3h126
		c1.3,0,2.4-1,2.5-2.3l3.4-52.4c0.1-1.3,1.2-2.3,2.5-2.3l0,0c1.4,0,2.5,1.1,2.5,2.5v60c0,1.4-1.1,2.5-2.5,2.5h-143
		c-1.4,0-2.5-1.1-2.5-2.5v-60C668.3,34.9,669.4,33.8,670.8,33.8z"/>
	<g id="XMLID_5_" class="st1">
		<path id="XMLID_27_" d="M695.4,143.4c-3-1.7-6.3-2.6-9.9-2.6c-3.6,0-6.9,0.9-9.8,2.6c-2.9,1.7-5.2,4.1-7,7c-1.7,3-2.6,6.3-2.6,9.8
			c0,3.7,0.9,7.1,2.6,10c1.7,2.9,4.1,5.2,7,6.9c2.9,1.7,6.2,2.5,9.8,2.5c3.6,0,6.9-0.9,9.8-2.6c2.9-1.7,5.3-4,7-6.9
			c1.8-2.9,2.6-6.3,2.6-9.8c0-3.5-0.9-6.8-2.6-9.8C700.7,147.5,698.3,145.1,695.4,143.4z M694,165.2c-0.9,1.5-2.1,2.7-3.6,3.6
			c-1.5,0.9-3.1,1.3-4.9,1.3c-1.8,0-3.4-0.4-4.9-1.3c-1.5-0.9-2.7-2.1-3.6-3.6c-0.9-1.5-1.3-3.1-1.3-5c0-1.7,0.4-3.2,1.3-4.7
			c0.9-1.6,2.1-2.8,3.6-3.8c1.4-0.9,3-1.4,4.9-1.4c1.8,0,3.4,0.4,4.8,1.3c1.5,0.9,2.7,2.1,3.6,3.7c0.9,1.5,1.3,3.1,1.3,4.9
			C695.3,162.1,694.9,163.8,694,165.2z"/>
		<path id="XMLID_26_" d="M742.3,175.3l4.8,10.9l2.9-7l0.8-2l1.3-3.3l3.7-9.2l4.2,9.5l0.8,1.7l0.5,1.1l3.8,8.6l3.8-8.6l0.6-1.3
			l0.8-1.4l15-33.3H775l-9.7,22.2l-9.9-22.2h-10.4l5.6,12.2l-3.7,9.3l-9.7-21.5h-6h-7.3c-1.4,0-2.7,0.2-4,0.7
			c-0.7,0.3-1.4,0.7-2.1,1.1l0-1.8H708v37h10v-21c0-1.4,0.4-2.6,1.1-3.7c0.8-1.2,1.8-2.1,3.2-2.8c1.4-0.7,2.6-1.1,4.2-1.1l3.5-0.1
			v-0.1l11.6,25.2"/>
		<path id="XMLID_6_" d="M808.2,167.5c-0.9,0.8-1.9,1.5-3.1,2c-1.2,0.5-2.4,0.7-3.7,0.7c-2,0-3.7-0.4-5.1-1.3
			c-0.6-0.4-1.2-0.9-1.7-1.4l16.9-6.9l1.8-0.8l1.8-0.9l-0.1-0.2v-10.4c-1-1.4-1.8-2.6-3.1-3.7c-3-2.5-6.5-3.8-10.7-3.8
			c-3.6,0-6.8,0.9-9.7,2.6c-2.9,1.7-5.2,4.1-6.9,7c-1.7,3-2.6,6.3-2.6,9.8c0,3.6,0.9,6.9,2.7,9.8c1.7,2.9,4.1,5.2,7,6.9
			c2.9,1.7,6.2,2.6,9.8,2.6c2.5,0,5-0.5,7.3-1.4c2.2-0.9,4.2-2.1,5.9-3.6l3.2-2.7l-6.6-7.1L808.2,167.5z M792.9,155.2
			c0.9-1.5,2-2.7,3.5-3.6c1.5-0.9,3.1-1.3,4.9-1.3c1.8,0,3.3,0.5,4.6,1.6c0.2,0.2,0.4,0.3,0.6,0.5l-14.7,5.9
			C792,157.2,792.4,156.2,792.9,155.2z"/>
	</g>
	<path id="XMLID_23_" class="st1" d="M989.9,147.7v0.2c0,1.3,1,2.4,2.3,2.5l52.4,3.6c1.3,0.1,2.3,1.2,2.3,2.5v126
		c0,1.3-1,2.4-2.3,2.5l-52.4,3.4c-1.3,0.1-2.3,1.2-2.3,2.5l0,0c0,1.4,1.1,2.5,2.5,2.5h60c1.4,0,2.5-1.1,2.5-2.5v-143
		c0-1.4-1.1-2.5-2.5-2.5h-60C991,145.2,989.9,146.3,989.9,147.7z"/>
	<path id="XMLID_22_" class="st1" d="M1286,147.7v0.2c0,1.3-1,2.4-2.3,2.5l-52.4,3.6c-1.3,0.1-2.3,1.2-2.3,2.5v126
		c0,1.3,1,2.4,2.3,2.5l52.4,3.4c1.3,0.1,2.3,1.2,2.3,2.5l0,0c0,1.4-1.1,2.5-2.5,2.5h-60c-1.4,0-2.5-1.1-2.5-2.5v-143
		c0-1.4,1.1-2.5,2.5-2.5h60C1284.9,145.2,1286,146.3,1286,147.7z"/>
	<circle id="XMLID_21_" class="st1" cx="1082.8" cy="282.6" r="10.4"/>
	<circle id="XMLID_42_" class="st1" cx="1161.8" cy="-258.4" r="10.4"/>
	<circle id="XMLID_82_" class="st1" cx="667" cy="-119.6" r="4.5"/>
	<circle id="XMLID_83_" class="st1" cx="675" cy="-49.6" r="4.5"/>
	<path id="XMLID_16_" class="st1" d="M1091,148c-3-1.7-6.3-2.6-9.9-2.6c-3.6,0-6.9,0.9-9.8,2.6c-2.9,1.7-5.2,4.1-7,7
		c-1.7,3-2.6,6.3-2.6,9.8c0,3.7,0.9,7.1,2.6,10c1.7,2.9,4.1,5.2,7,6.9c2.9,1.7,6.2,2.5,9.8,2.5c3.6,0,6.9-0.9,9.8-2.6
		c2.9-1.7,5.3-4,7-6.9c1.8-2.9,2.6-6.3,2.6-9.8c0-3.5-0.9-6.8-2.6-9.8C1096.3,152.1,1093.9,149.7,1091,148z M1089.6,169.8
		c-0.9,1.5-2.1,2.7-3.6,3.6c-1.5,0.9-3.1,1.3-4.9,1.3c-1.8,0-3.4-0.4-4.9-1.3c-1.5-0.9-2.7-2.1-3.6-3.6c-0.9-1.5-1.3-3.1-1.3-5
		c0-1.7,0.4-3.2,1.3-4.7c0.9-1.6,2.1-2.8,3.6-3.8c1.4-0.9,3-1.4,4.9-1.4c1.8,0,3.4,0.4,4.8,1.3c1.5,0.9,2.7,2.1,3.6,3.7
		c0.9,1.5,1.3,3.1,1.3,4.9C1090.9,166.7,1090.5,168.3,1089.6,169.8z"/>
	<path id="XMLID_15_" class="st1" d="M1137.8,179.9l4.8,10.9l2.9-7l0.8-2l1.3-3.3l3.7-9.2l4.2,9.5l0.8,1.7l0.5,1.1l3.8,8.6l3.8-8.6
		l0.6-1.3l0.8-1.7l15-33.6h-10.4l-9.7,22.2l-9.9-22.2h-10.4l5.6,12.5l-3.7,9.2l-9.7-21.7h-6h-7.3c-1.4,0-2.7,0.5-4,1
		c-0.7,0.3-1.4,0.6-2.1,0.9l0-1.9h-9.2v37h10v-20.4c0-1.4,0.2-2.6,0.9-3.7c0.8-1.2,1.7-2.1,3.1-2.8c1.4-0.7,2.7-1.1,4.4-1.1l3.6-0.1
		v-0.1l11.3,25.2"/>
	<path id="XMLID_9_" class="st1" d="M1203.8,172c-0.9,0.8-1.9,1.5-3.1,2c-1.2,0.5-2.4,0.7-3.7,0.7c-2,0-3.7-0.4-5.1-1.3
		c-0.6-0.4-1.2-0.9-1.7-1.4l16.9-6.9l1.8-0.8l2-0.9l0.2-0.2v-10.4c-1-1.4-2-2.6-3.3-3.7c-3-2.5-6.6-3.8-10.8-3.8
		c-3.6,0-6.9,0.9-9.8,2.6c-2.9,1.7-5.2,4.1-6.9,7c-1.7,3-2.6,6.3-2.6,9.8c0,3.6,0.9,6.9,2.6,9.8c1.7,2.9,4.1,5.2,7,6.9
		c2.9,1.7,6.2,2.6,9.8,2.6c2.5,0,5-0.5,7.3-1.4c2.2-0.9,4.2-2.1,5.9-3.6l3.2-2.7l-6.6-7.1L1203.8,172z M1188.5,159.8
		c0.9-1.5,2-2.7,3.5-3.6c1.5-0.9,3.1-1.3,4.9-1.3c1.8,0,3.3,0.5,4.6,1.6c0.2,0.2,0.4,0.3,0.6,0.5l-14.7,5.9
		C1187.6,161.8,1187.9,160.7,1188.5,159.8z"/>
	<g id="XMLID_1_" class="st1">
		<path id="XMLID_48_" d="M467.3-123.6c-3-1.7-6.3-2.6-9.9-2.6c-3.6,0-6.9,0.9-9.8,2.6c-2.9,1.7-5.2,4.1-7,7c-1.7,3-2.6,6.3-2.6,9.8
			c0,3.7,0.9,7.1,2.6,10c1.7,2.9,4.1,5.2,7,6.9c2.9,1.7,6.2,2.5,9.8,2.5c3.6,0,6.9-0.9,9.8-2.6c2.9-1.7,5.3-4,7-6.9
			c1.8-2.9,2.6-6.3,2.6-9.8c0-3.5-0.9-6.8-2.6-9.8C472.6-119.5,470.2-121.9,467.3-123.6z M465.9-101.8c-0.9,1.5-2.1,2.7-3.6,3.6
			c-1.5,0.9-3.1,1.3-4.9,1.3c-1.8,0-3.4-0.4-4.9-1.3c-1.5-0.9-2.7-2.1-3.6-3.6c-0.9-1.5-1.3-3.1-1.3-5c0-1.7,0.4-3.2,1.3-4.7
			c0.9-1.6,2.1-2.8,3.6-3.8c1.4-0.9,3-1.4,4.9-1.4c1.8,0,3.4,0.4,4.8,1.3c1.5,0.9,2.7,2.1,3.6,3.7c0.9,1.5,1.3,3.1,1.3,4.9
			C467.2-104.9,466.8-103.2,465.9-101.8z"/>
		<path id="XMLID_47_" d="M514.2-91.7l4.8,10.9l2.9-7l0.8-2l1.3-3.3l3.7-9.2l4.2,9.5l0.8,1.7l0.5,1.1l3.8,8.6l3.8-8.6l0.6-1.3
			l0.8-1.4l15-33.3h-10.4l-9.7,22.2l-9.9-22.2h-10.4l5.6,12.2l-3.7,9.3L509-126h-6h-7.3c-1.4,0-2.7,0.2-4,0.7
			c-0.7,0.3-1.4,0.7-2.1,1.1l0-1.8H480v37h10v-21c0-1.4,0.4-2.6,1.1-3.7c0.8-1.2,1.8-2.1,3.1-2.8c1.4-0.7,2.6-1.1,4.3-1.1l3.5-0.1
			v-0.1l11.5,25.2"/>
		<path id="XMLID_44_" d="M580.1-99.5c-0.9,0.8-1.9,1.5-3.1,2c-1.2,0.5-2.4,0.7-3.7,0.7c-2,0-3.7-0.4-5.1-1.3
			c-0.6-0.4-1.2-0.9-1.7-1.4l16.9-6.9l1.8-0.8l1.9-0.9l0-0.2v-10.4c-1-1.4-1.8-2.6-3.1-3.7c-3-2.5-6.5-3.8-10.7-3.8
			c-3.6,0-6.8,0.9-9.8,2.6c-2.9,1.7-5.2,4.1-6.9,7c-1.7,3-2.6,6.3-2.6,9.8c0,3.6,0.9,6.9,2.7,9.8c1.7,2.9,4.1,5.2,7,6.9
			c2.9,1.7,6.2,2.6,9.8,2.6c2.5,0,5-0.5,7.3-1.4c2.2-0.9,4.2-2.1,5.9-3.6l3.2-2.7l-6.6-7.1L580.1-99.5z M564.8-111.8
			c0.9-1.5,2-2.7,3.5-3.6c1.5-0.9,3.1-1.3,4.9-1.3c1.8,0,3.3,0.5,4.6,1.6c0.2,0.2,0.4,0.3,0.6,0.5l-14.7,5.9
			C563.9-109.8,564.2-110.8,564.8-111.8z"/>
	</g>
	<g id="XMLID_43_" class="st1">
		<g id="XMLID_51_">
			<path id="XMLID_52_" d="M515-128.6L515-128.6c0.4,0,0.8-0.3,0.8-0.7l1-15.2c0-0.4,0.3-0.7,0.7-0.7h36.5c0.4,0,0.7,0.3,0.7,0.7
				l1,15.2c0,0.4,0.3,0.7,0.7,0.7l0,0c0.4,0,0.7-0.3,0.7-0.7v-17.4c0-0.4-0.3-0.7-0.7-0.7H515c-0.4,0-0.7,0.3-0.7,0.7v17.4
				C514.3-128.9,514.6-128.6,515-128.6z"/>
			<path id="XMLID_53_" d="M512.7-128.6L512.7-128.6c-0.4,0-0.8-0.3-0.8-0.7l-1-15.2c0-0.4-0.3-0.7-0.7-0.7h-36.5
				c-0.4,0-0.7,0.3-0.7,0.7l-1,15.2c0,0.4-0.3,0.7-0.7,0.7l0,0c-0.4,0-0.7-0.3-0.7-0.7v-17.4c0-0.4,0.3-0.7,0.7-0.7h41.5
				c0.4,0,0.7,0.3,0.7,0.7v17.4C513.4-128.9,513.1-128.6,512.7-128.6z"/>
		</g>
		<circle id="XMLID_54_" cx="513.5" cy="-156.6" r="10.4"/>
	</g>
	<g id="XMLID_61_" class="st1">
		<path id="XMLID_66_" d="M242.3-128.6c-3-1.7-6.3-2.6-9.9-2.6c-3.6,0-6.9,0.9-9.8,2.6c-2.9,1.7-5.2,4.1-7,7c-1.7,3-2.6,6.3-2.6,9.8
			c0,3.7,0.9,7.1,2.6,10c1.7,2.9,4.1,5.2,7,6.9c2.9,1.7,6.2,2.5,9.8,2.5c3.6,0,6.9-0.9,9.8-2.6c2.9-1.7,5.3-4,7-6.9
			c1.8-2.9,2.6-6.3,2.6-9.8c0-3.5-0.9-6.8-2.6-9.8C247.6-124.5,245.2-126.9,242.3-128.6z M240.9-106.8c-0.9,1.5-2.1,2.7-3.6,3.6
			c-1.5,0.9-3.1,1.3-4.9,1.3c-1.8,0-3.4-0.4-4.9-1.3c-1.5-0.9-2.7-2.1-3.6-3.6c-0.9-1.5-1.3-3.1-1.3-5c0-1.7,0.4-3.2,1.3-4.7
			c0.9-1.6,2.1-2.8,3.6-3.8c1.4-0.9,3-1.4,4.9-1.4c1.8,0,3.4,0.4,4.8,1.3c1.5,0.9,2.7,2.1,3.6,3.7c0.9,1.5,1.3,3.1,1.3,4.9
			C242.2-109.9,241.8-108.2,240.9-106.8z"/>
		<path id="XMLID_65_" d="M289.2-96.7l4.8,10.9l2.9-7l0.8-2l1.3-3.3l3.7-9.2l4.2,9.5l0.8,1.7l0.5,1.1l3.8,8.6l3.8-8.6l0.6-1.3
			l0.8-1.4l15-33.3h-10.4l-9.7,22.2l-9.9-22.2h-10.4l5.6,12.2l-3.7,9.3L284-131h-6h-7.3c-1.4,0-2.7,0.2-4,0.7
			c-0.7,0.3-1.4,0.7-2.1,1.1l0-1.8H255v37h10v-21c0-1.4,0.4-2.6,1.1-3.7c0.8-1.2,1.8-2.1,3.1-2.8c1.4-0.7,2.6-1.1,4.3-1.1l3.5-0.1
			v-0.1l11.5,25.2"/>
		<path id="XMLID_62_" d="M355.1-104.5c-0.9,0.8-1.9,1.5-3.1,2c-1.2,0.5-2.4,0.7-3.7,0.7c-2,0-3.7-0.4-5.1-1.3
			c-0.6-0.4-1.2-0.9-1.7-1.4l16.9-6.9l1.8-0.8l1.9-0.9l0-0.2v-10.4c-1-1.4-1.8-2.6-3.1-3.7c-3-2.5-6.5-3.8-10.7-3.8
			c-3.6,0-6.8,0.9-9.8,2.6c-2.9,1.7-5.2,4.1-6.9,7c-1.7,3-2.6,6.3-2.6,9.8c0,3.6,0.9,6.9,2.7,9.8c1.7,2.9,4.1,5.2,7,6.9
			c2.9,1.7,6.2,2.6,9.8,2.6c2.5,0,5-0.5,7.3-1.4c2.2-0.9,4.2-2.1,5.9-3.6l3.2-2.7l-6.6-7.1L355.1-104.5z M339.8-116.8
			c0.9-1.5,2-2.7,3.5-3.6c1.5-0.9,3.1-1.3,4.9-1.3c1.8,0,3.3,0.5,4.6,1.6c0.2,0.2,0.4,0.3,0.6,0.5l-14.7,5.9
			C338.9-114.8,339.2-115.8,339.8-116.8z"/>
	</g>
	<g id="XMLID_55_" class="st1">
		<circle id="XMLID_57_" cx="293.3" cy="-169" r="22"/>
		<g id="XMLID_56_">
			<path id="XMLID_58_" d="M287.6-143.4l0.5,8c0.1,0.9,0.8,1.6,1.7,1.6h0.5c0.9,0,1.7-0.8,1.7-1.7v-12.9c0-1.3-1-2.3-2.3-2.3h-84.6
				c-2.3,0-4.2,1.9-4.2,4.2v33.4c0,0.8,1.2,1.5,2,1.5c0.8,0,1.7-0.6,1.8-1.4l2.2-32.1c0.1-0.8,0.8-1.3,1.6-1.3h75.7
				C286-146.5,287.5-145.1,287.6-143.4z"/>
			<path id="XMLID_59_" d="M299.2-143.4l-0.5,8c-0.1,0.9-0.8,1.6-1.7,1.6h-0.5c-0.9,0-1.7-0.8-1.7-1.7v-12.9c0-1.3,1-2.3,2.3-2.3
				h84.6c2.3,0,4.2,1.9,4.2,4.2v33.4c0,0.8-1.2,1.5-2,1.5c-0.8,0-1.7-0.6-1.8-1.4l-2.2-32.1c-0.1-0.8-0.8-1.3-1.6-1.3h-75.7
				C300.8-146.5,299.3-145.1,299.2-143.4z"/>
		</g>
	</g>
	<g id="XMLID_60_" class="st1">
		<path id="XMLID_73_" d="M719.4-107.6c-3-1.7-6.3-2.6-9.9-2.6c-3.6,0-6.9,0.9-9.8,2.6c-2.9,1.7-5.2,4.1-7,7c-1.7,3-2.6,6.3-2.6,9.8
			c0,3.7,0.9,7.1,2.6,10c1.7,2.9,4.1,5.2,7,6.9c2.9,1.7,6.2,2.5,9.8,2.5c3.6,0,6.9-0.9,9.8-2.6c2.9-1.7,5.3-4,7-6.9
			c1.8-2.9,2.6-6.3,2.6-9.8c0-3.5-0.9-6.8-2.6-9.8C724.7-103.5,722.3-105.9,719.4-107.6z M718-85.8c-0.9,1.5-2.1,2.7-3.6,3.6
			c-1.5,0.9-3.1,1.3-4.9,1.3c-1.8,0-3.4-0.4-4.9-1.3c-1.5-0.9-2.7-2.1-3.6-3.6c-0.9-1.5-1.3-3.1-1.3-5c0-1.7,0.4-3.2,1.3-4.7
			c0.9-1.6,2.1-2.8,3.6-3.8c1.4-0.9,3-1.4,4.9-1.4c1.8,0,3.4,0.4,4.8,1.3c1.5,0.9,2.7,2.1,3.6,3.7c0.9,1.5,1.3,3.1,1.3,4.9
			C719.3-88.9,718.9-87.2,718-85.8z"/>
		<path id="XMLID_72_" d="M766.3-75.7l4.8,10.9l2.9-7l0.8-2l1.3-3.3l3.7-9.2l4.2,9.5l0.8,1.7l0.5,1.1l3.8,8.6L793-74l0.6-1.3
			l0.8-1.4l15-33.3H799l-9.7,22.2l-9.9-22.2h-10.4l5.6,12.2l-3.7,9.3l-9.7-21.5h-6h-7.3c-1.4,0-2.7,0.2-4,0.7
			c-0.7,0.3-1.4,0.7-2.1,1.1l0-1.8H732v37h10v-21c0-1.4,0.4-2.6,1.1-3.7c0.8-1.2,1.8-2.1,3.2-2.8c1.4-0.7,2.6-1.1,4.2-1.1l3.5-0.1
			v-0.1l11.6,25.2"/>
		<path id="XMLID_69_" d="M832.2-83.5c-0.9,0.8-1.9,1.5-3.1,2c-1.2,0.5-2.4,0.7-3.7,0.7c-2,0-3.7-0.4-5.1-1.3
			c-0.6-0.4-1.2-0.9-1.7-1.4l16.9-6.9l1.8-0.8l1.8-0.9l-0.1-0.2v-10.4c-1-1.4-1.8-2.6-3.1-3.7c-3-2.5-6.5-3.8-10.7-3.8
			c-3.6,0-6.8,0.9-9.7,2.6c-2.9,1.7-5.2,4.1-6.9,7c-1.7,3-2.6,6.3-2.6,9.8c0,3.6,0.9,6.9,2.7,9.8c1.7,2.9,4.1,5.2,7,6.9
			c2.9,1.7,6.2,2.6,9.8,2.6c2.5,0,5-0.5,7.3-1.4c2.2-0.9,4.2-2.1,5.9-3.6l3.2-2.7l-6.6-7.1L832.2-83.5z M816.9-95.8
			c0.9-1.5,2-2.7,3.5-3.6c1.5-0.9,3.1-1.3,4.9-1.3c1.8,0,3.3,0.5,4.6,1.6c0.2,0.2,0.4,0.3,0.6,0.5l-14.7,5.9
			C816-93.8,816.4-94.8,816.9-95.8z"/>
	</g>
	<path id="XMLID_80_" class="st1" d="M845-91.3L845-91.3c-0.2,0.4,0,0.8,0.3,1l13.6,6.8c0.3,0.2,0.5,0.6,0.3,0.9l-13.9,33.8
		c-0.1,0.3-0.5,0.5-0.9,0.4L830-53.4c-0.4-0.1-0.8,0.1-0.9,0.4l0,0c-0.2,0.4,0,0.8,0.4,0.9l16.1,6.6c0.4,0.2,0.8,0,0.9-0.4
		l15.8-38.4c0.2-0.4,0-0.8-0.4-0.9l-16.1-6.6C845.6-91.8,845.1-91.7,845-91.3z"/>
	<path id="XMLID_79_" class="st1" d="M849.4-93.6L849.4-93.6c-0.2-0.4-0.1-0.8,0.2-1l12.5-8.8c0.3-0.2,0.4-0.6,0.2-1l-18.9-31.3
		c-0.2-0.3-0.6-0.4-0.9-0.3l-13.5,7c-0.3,0.2-0.7,0.1-0.9-0.3l0,0c-0.2-0.3-0.1-0.8,0.2-1l14.9-9c0.3-0.2,0.8-0.1,1,0.2l21.5,35.5
		c0.2,0.3,0.1,0.8-0.2,1l-14.9,9C850-93.1,849.6-93.2,849.4-93.6z"/>
	<circle id="XMLID_77_" class="st1" cx="852.7" cy="-93.1" r="10.4"/>
	<line id="XMLID_78_" class="st1" x1="711.7" y1="-68.4" x2="675.8" y2="-49.3"/>
	<line id="XMLID_81_" class="st1" x1="695.1" y1="-107.9" x2="667" y2="-119.6"/>
	<path id="XMLID_87_" class="st1" d="M1631.5-353l50-7.4c0.7-0.1,1.3-0.7,1.3-1.5v-0.1c0-0.8-0.7-1.5-1.5-1.5h-60.1
		c-0.8,0-1.5,0.7-1.5,1.5v61.1c0,0.8,0.7,1.5,1.5,1.5l0,0c0.7,0,1.3-0.5,1.5-1.3l7.6-51.1C1630.3-352.4,1630.8-352.9,1631.5-353z"/>
	<path id="XMLID_86_" class="st1" d="M1597.6-269.1l-7.4-50c-0.1-0.7-0.7-1.3-1.5-1.3h-0.1c-0.8,0-1.5,0.7-1.5,1.5v60.1
		c0,0.8,0.7,1.5,1.5,1.5h61.1c0.8,0,1.5-0.7,1.5-1.5l0,0c0-0.7-0.5-1.3-1.3-1.5l-51.1-7.6C1598.2-268,1597.7-268.5,1597.6-269.1z"/>
	<g id="XMLID_84_" class="st1">
		<path id="XMLID_90_" d="M1254.3-203l-9.1-6.8c-0.1-0.1-0.3-0.1-0.4,0l0,0c-0.1,0.1-0.1,0.3,0,0.5l9.6,9.6c0.1,0.1,0.3,0.1,0.5,0
			l9.7-9.7c0.1-0.1,0.1-0.3,0-0.5l0,0c-0.1-0.1-0.3-0.1-0.4,0l-9.4,6.9C1254.6-202.9,1254.4-202.9,1254.3-203z"/>
		<path id="XMLID_99_" d="M1254.9-206.8l9.1,6.8c0.1,0.1,0.3,0.1,0.4,0l0,0c0.1-0.1,0.1-0.3,0-0.5l-9.6-9.6c-0.1-0.1-0.3-0.1-0.5,0
			l-9.7,9.7c-0.1,0.1-0.1,0.3,0,0.5l0,0c0.1,0.1,0.3,0.1,0.4,0l9.4-6.9C1254.6-206.9,1254.8-206.9,1254.9-206.8z"/>
	</g>
	<g id="XMLID_88_" class="st1">
		<path id="XMLID_94_" d="M1382-410.6h8.1l-8.7,27.7h-7.9l-5.7-17.7h-0.1l-5.7,17.7h-7.8l-8.6-27.7h8.3l5,17.2h0.1l5.2-17.2h7.5
			l5.2,17.3L1382-410.6z"/>
		<path id="XMLID_96_" d="M1400.5-394.5c0.5,3.4,3.4,5.4,6.8,5.4c2.4,0,4.9-1.3,6.2-3.3l5.9,3.8c-2.3,4.2-6.3,6.3-11.9,6.3
			c-4.3,0-7.9-1.3-10.8-4c-2.9-2.7-4.4-6.2-4.4-10.5c0-4,1.5-7.4,4.3-10.2c2.9-2.9,6.4-4.3,10.4-4.3c4.1,0,7.4,1.3,10,3.8
			c2.5,2.5,3.8,5.9,3.8,10c0,1.3-0.1,2.3-0.1,2.9H1400.5z M1412.6-399.9c-0.2-2.4-2.2-4.8-5.9-4.8c-1.7,0-3.1,0.5-4.1,1.6
			c-1.1,1-1.7,2.1-1.9,3.2H1412.6z"/>
	</g>
</g>
<g id="Layer_2">
	<g id="XMLID_85_" class="st0">
		<g id="XMLID_76_" class="st1">
			<path id="XMLID_111_" d="M451.1,120h-28l-18.5,61.2L386.2,120h-26.4l-18.3,60h-0.2l-6.7-22.2c0.1,2.3,0.1,4.5,0.1,6.8
				c0,18.8-3.3,36.4-9.8,52.4h27.5l20.2-62h0.2l20,62h28.1l7.5-23.9c-4.9-7.8-7.4-17-7.4-27.4c0-14.1,5.1-25.7,15.2-35.8
				C440.8,125.4,445.7,122,451.1,120z"/>
			<path id="XMLID_108_" d="M536.1,163.5c0-14.5-4.6-26-13.6-35c-3.8-3.8-8-7.5-12.7-8.5h-43.7l-23.3,73.2c2.2,3.5,4.8,6.6,8,9.5
				c10.5,9.5,23.1,14.2,38.3,14.2c20,0,33.9-7.4,42.2-22.2l-20.7-13.6c-4.4,7.2-13.2,11.9-21.8,11.9c-12.3,0-22.6-7.1-24.2-19.1
				h71.2C535.9,171,536.1,168.1,536.1,163.5z M465.3,155c0.6-4,2.8-7.9,6.6-11.5c3.9-3.9,8.8-5.6,14.7-5.6c13,0,20.2,8.1,20.9,17.1
				H465.3z"/>
		</g>
		<path id="XMLID_100_" class="st1" d="M370.6,291.2h-0.2l-0.1-0.4c0.1,0.2,0.1,0.4,0.2,0.7C370.5,291.4,370.6,291.3,370.6,291.2z"
			/>
		<path id="XMLID_106_" class="st1" d="M368.5,285.1l1.8,5.7C369.7,288.9,369.1,287,368.5,285.1z"/>
		<path id="XMLID_102_" class="st1" d="M370.3,290.8l-1.8-5.7c-10-30.3-26.1-54.2-45.7-67.2c-0.2,0.9-0.4,1.8-0.6,2.7
			c2.9-12.6,4.4-26.2,4.4-40.5c0-20.3-3.2-39.4-8.8-56c-21.8-14.2-46.7-21.4-74.9-21.4c-14.2,0-27.6,1.8-40.3,5.5
			c-21.6,6.2-40.9,17.7-58,34.7c-27.2,26.9-40.8,59.2-40.8,97.2c0,38.4,13.3,70.7,40.1,97.2c16.4,16.2,34.7,27.4,55.3,33.7
			c13.2,4.1,27.3,6.1,42.3,6.1c38.4,0,71.1-13.3,97.9-40.1c13.8-13.7,24.1-28.9,30.9-45.6C370.4,291.2,370.4,291,370.3,290.8z
			 M242.5,325c-45.4,0-82.1-37.8-82.1-84.4c0-46.6,36.8-84.4,82.1-84.4s82.1,37.8,82.1,84.4C324.6,287.2,287.8,325,242.5,325z"/>
	</g>
	<g id="XMLID_93_" class="st0">
		<g id="XMLID_114_" class="st1">
			<path id="XMLID_118_" class="st2" d="M451.1,120h-28l-18.5,61.2L386.2,120h-26.4l-18.3,60h-0.2l-6.7-22.2
				c0.1,2.3,0.1,4.5,0.1,6.8c0,18.8-3.3,36.4-9.8,52.4h27.5l20.2-62h0.2l20,62h28.1l7.5-23.9c-4.9-7.8-7.4-17-7.4-27.4
				c0-14.1,5.1-25.7,15.2-35.8C440.8,125.4,445.7,122,451.1,120z"/>
			<path id="XMLID_115_" class="st2" d="M536.1,163.5c0-14.5-4.6-26-13.6-35c-3.8-3.8-8-7.5-12.7-8.5h-43.7l-23.3,73.2
				c2.2,3.5,4.8,6.6,8,9.5c10.5,9.5,23.1,14.2,38.3,14.2c20,0,33.9-7.4,42.2-22.2l-20.7-13.6c-4.4,7.2-13.2,11.9-21.8,11.9
				c-12.3,0-22.6-7.1-24.2-19.1h71.2C535.9,171,536.1,168.1,536.1,163.5z M465.3,155c0.6-4,2.8-7.9,6.6-11.5
				c3.9-3.9,8.8-5.6,14.7-5.6c13,0,20.2,8.1,20.9,17.1H465.3z"/>
		</g>
		<path id="XMLID_113_" class="st3" d="M370.6,291.2h-0.2l-0.1-0.4c0.1,0.2,0.1,0.4,0.2,0.7C370.5,291.4,370.6,291.3,370.6,291.2z"
			/>
		<path id="XMLID_112_" class="st3" d="M368.5,285.1l1.8,5.7C369.7,288.9,369.1,287,368.5,285.1z"/>
		<path id="XMLID_103_" class="st3" d="M370.3,290.8l-1.8-5.7c-10-30.3-26.1-54.2-45.7-67.2c-0.2,0.9-0.4,1.8-0.6,2.7
			c2.9-12.6,4.4-26.2,4.4-40.5c0-20.3-3.2-39.4-8.8-56c-21.8-14.2-46.7-21.4-74.9-21.4c-14.2,0-27.6,1.8-40.3,5.5
			c-21.6,6.2-40.9,17.7-58,34.7c-27.2,26.9-40.8,59.2-40.8,97.2c0,38.4,13.3,70.7,40.1,97.2c16.4,16.2,34.7,27.4,55.3,33.7
			c13.2,4.1,27.3,6.1,42.3,6.1c38.4,0,71.1-13.3,97.9-40.1c13.8-13.7,24.1-28.9,30.9-45.6C370.4,291.2,370.4,291,370.3,290.8z
			 M242.5,325c-45.4,0-82.1-37.8-82.1-84.4c0-46.6,36.8-84.4,82.1-84.4s82.1,37.8,82.1,84.4C324.6,287.2,287.8,325,242.5,325z"/>
	</g>
	<g id="XMLID_119_">
		<g id="XMLID_125_">
			<path id="XMLID_129_" class="st4" d="M451.1,120h-28l-18.5,61.2L386.2,120h-26.4l-18.3,60h-0.2l-6.7-22.2
				c0.1,2.3,0.1,4.5,0.1,6.8c0,18.8-3.3,36.4-9.8,52.4h27.5l20.2-62h0.2l20,62h28.1l7.5-23.9c-4.9-7.8-7.4-17-7.4-27.4
				c0-14.1,5.1-25.7,15.2-35.8C440.8,125.4,445.7,122,451.1,120z"/>
			<path id="XMLID_126_" class="st4" d="M536.1,163.5c0-14.5-4.6-26-13.6-35c-3.8-3.8-8-7.5-12.7-8.5h-43.7l-23.3,73.2
				c2.2,3.5,4.8,6.6,8,9.5c10.5,9.5,23.1,14.2,38.3,14.2c20,0,33.9-7.4,42.2-22.2l-20.7-13.6c-4.4,7.2-13.2,11.9-21.8,11.9
				c-12.3,0-22.6-7.1-24.2-19.1h71.2C535.9,171,536.1,168.1,536.1,163.5z M465.3,155c0.6-4,2.8-7.9,6.6-11.5
				c3.9-3.9,8.8-5.6,14.7-5.6c13,0,20.2,8.1,20.9,17.1H465.3z"/>
		</g>
		<path id="XMLID_124_" class="st4" d="M370.6,291.2h-0.2l-0.1-0.4c0.1,0.2,0.1,0.4,0.2,0.7C370.5,291.4,370.6,291.3,370.6,291.2z"
			/>
		<path id="XMLID_123_" class="st4" d="M368.5,285.1l1.8,5.7C369.7,288.9,369.1,287,368.5,285.1z"/>
		<path id="XMLID_120_" class="st4" d="M370.3,290.8l-1.8-5.7c-10-30.3-26.1-54.2-45.7-67.2c-0.2,0.9-0.4,1.8-0.6,2.7
			c2.9-12.6,4.4-26.2,4.4-40.5c0-20.3-3.2-39.4-8.8-56c-21.8-14.2-46.7-21.4-74.9-21.4c-14.2,0-27.6,1.8-40.3,5.5
			c-21.6,6.2-40.9,17.7-58,34.7c-27.2,26.9-40.8,59.2-40.8,97.2c0,38.4,13.3,70.7,40.1,97.2c16.4,16.2,34.7,27.4,55.3,33.7
			c13.2,4.1,27.3,6.1,42.3,6.1c38.4,0,71.1-13.3,97.9-40.1c13.8-13.7,24.1-28.9,30.9-45.6C370.4,291.2,370.4,291,370.3,290.8z
			 M242.5,325c-45.4,0-82.1-37.8-82.1-84.4c0-46.6,36.8-84.4,82.1-84.4s82.1,37.8,82.1,84.4C324.6,287.2,287.8,325,242.5,325z"/>
	</g>
	<g id="XMLID_130_" class="st0">
		<g id="XMLID_136_" class="st1">
			<path id="XMLID_140_" class="st5" d="M451.1,120h-28l-18.5,61.2L386.2,120h-26.4l-18.3,60h-0.2l-6.7-22.2
				c0.1,2.3,0.1,4.5,0.1,6.8c0,18.8-3.3,36.4-9.8,52.4h27.5l20.2-62h0.2l20,62h28.1l7.5-23.9c-4.9-7.8-7.4-17-7.4-27.4
				c0-14.1,5.1-25.7,15.2-35.8C440.8,125.4,445.7,122,451.1,120z"/>
			<path id="XMLID_137_" class="st5" d="M536.1,163.5c0-14.5-4.6-26-13.6-35c-3.8-3.8-8-7.5-12.7-8.5h-43.7l-23.3,73.2
				c2.2,3.5,4.8,6.6,8,9.5c10.5,9.5,23.1,14.2,38.3,14.2c20,0,33.9-7.4,42.2-22.2l-20.7-13.6c-4.4,7.2-13.2,11.9-21.8,11.9
				c-12.3,0-22.6-7.1-24.2-19.1h71.2C535.9,171,536.1,168.1,536.1,163.5z M465.3,155c0.6-4,2.8-7.9,6.6-11.5
				c3.9-3.9,8.8-5.6,14.7-5.6c13,0,20.2,8.1,20.9,17.1H465.3z"/>
		</g>
		<path id="XMLID_135_" class="st6" d="M370.6,291.2h-0.2l-0.1-0.4c0.1,0.2,0.1,0.4,0.2,0.7C370.5,291.4,370.6,291.3,370.6,291.2z"
			/>
		<path id="XMLID_134_" class="st6" d="M368.5,285.1l1.8,5.7C369.7,288.9,369.1,287,368.5,285.1z"/>
		<path id="XMLID_131_" class="st6" d="M370.3,290.8l-1.8-5.7c-10-30.3-26.1-54.2-45.7-67.2c-0.2,0.9-0.4,1.8-0.6,2.7
			c2.9-12.6,4.4-26.2,4.4-40.5c0-20.3-3.2-39.4-8.8-56c-21.8-14.2-46.7-21.4-74.9-21.4c-14.2,0-27.6,1.8-40.3,5.5
			c-21.6,6.2-40.9,17.7-58,34.7c-27.2,26.9-40.8,59.2-40.8,97.2c0,38.4,13.3,70.7,40.1,97.2c16.4,16.2,34.7,27.4,55.3,33.7
			c13.2,4.1,27.3,6.1,42.3,6.1c38.4,0,71.1-13.3,97.9-40.1c13.8-13.7,24.1-28.9,30.9-45.6C370.4,291.2,370.4,291,370.3,290.8z
			 M242.5,325c-45.4,0-82.1-37.8-82.1-84.4c0-46.6,36.8-84.4,82.1-84.4s82.1,37.8,82.1,84.4C324.6,287.2,287.8,325,242.5,325z"/>
	</g>
	<g id="XMLID_141_" class="st0">
		<g id="XMLID_147_" class="st1">
			<path id="XMLID_151_" class="st7" d="M451.1,120h-28l-18.5,61.2L386.2,120h-26.4l-18.3,60h-0.2l-6.7-22.2
				c0.1,2.3,0.1,4.5,0.1,6.8c0,18.8-3.3,36.4-9.8,52.4h27.5l20.2-62h0.2l20,62h28.1l7.5-23.9c-4.9-7.8-7.4-17-7.4-27.4
				c0-14.1,5.1-25.7,15.2-35.8C440.8,125.4,445.7,122,451.1,120z"/>
			<path id="XMLID_148_" class="st7" d="M536.1,163.5c0-14.5-4.6-26-13.6-35c-3.8-3.8-8-7.5-12.7-8.5h-43.7l-23.3,73.2
				c2.2,3.5,4.8,6.6,8,9.5c10.5,9.5,23.1,14.2,38.3,14.2c20,0,33.9-7.4,42.2-22.2l-20.7-13.6c-4.4,7.2-13.2,11.9-21.8,11.9
				c-12.3,0-22.6-7.1-24.2-19.1h71.2C535.9,171,536.1,168.1,536.1,163.5z M465.3,155c0.6-4,2.8-7.9,6.6-11.5
				c3.9-3.9,8.8-5.6,14.7-5.6c13,0,20.2,8.1,20.9,17.1H465.3z"/>
		</g>
		<path id="XMLID_146_" class="st8" d="M370.6,291.2h-0.2l-0.1-0.4c0.1,0.2,0.1,0.4,0.2,0.7C370.5,291.4,370.6,291.3,370.6,291.2z"
			/>
		<path id="XMLID_145_" class="st8" d="M368.5,285.1l1.8,5.7C369.7,288.9,369.1,287,368.5,285.1z"/>
		<path id="XMLID_142_" class="st8" d="M370.3,290.8l-1.8-5.7c-10-30.3-26.1-54.2-45.7-67.2c-0.2,0.9-0.4,1.8-0.6,2.7
			c2.9-12.6,4.4-26.2,4.4-40.5c0-20.3-3.2-39.4-8.8-56c-21.8-14.2-46.7-21.4-74.9-21.4c-14.2,0-27.6,1.8-40.3,5.5
			c-21.6,6.2-40.9,17.7-58,34.7c-27.2,26.9-40.8,59.2-40.8,97.2c0,38.4,13.3,70.7,40.1,97.2c16.4,16.2,34.7,27.4,55.3,33.7
			c13.2,4.1,27.3,6.1,42.3,6.1c38.4,0,71.1-13.3,97.9-40.1c13.8-13.7,24.1-28.9,30.9-45.6C370.4,291.2,370.4,291,370.3,290.8z
			 M242.5,325c-45.4,0-82.1-37.8-82.1-84.4c0-46.6,36.8-84.4,82.1-84.4s82.1,37.8,82.1,84.4C324.6,287.2,287.8,325,242.5,325z"/>
	</g>
</g>
</svg>
